{
	"asset":{
		"generator":"Khronos glTF Blender I/O v3.5.30",
		"version":"2.0"
	},
	"extensionsUsed":[
		"KHR_materials_specular",
		"KHR_materials_ior"
	],
	"scene":0,
	"scenes":[
		{
			"name":"Scene",
			"nodes":[
				0,
				1
			]
		}
	],
	"nodes":[
		{
			"mesh":0,
			"name":"Icosphere",
			"scale":[
				1.265234112739563,
				1.265234112739563,
				1.265234112739563
			]
		},
		{
			"mesh":1,
			"name":"Torus",
			"rotation":[
				0.08063239604234695,
				-0.6483662128448486,
				0.31899768114089966,
				0.6865567564964294
			]
		}
	],
	"materials":[
		{
			"doubleSided":true,
			"extensions":{
				"KHR_materials_specular":{
					"specularColorFactor":[
						0,
						0,
						0
					]
				},
				"KHR_materials_ior":{
					"ior":1.4500000476837158
				}
			},
			"name":"Ocean",
			"pbrMetallicRoughness":{
				"baseColorFactor":[
					0.19533872604370117,
					0.4882514774799347,
					0.8000000715255737,
					1
				],
				"metallicFactor":0.5520833730697632,
				"roughnessFactor":0
			}
		},
		{
			"doubleSided":true,
			"name":"Land",
			"pbrMetallicRoughness":{
				"baseColorFactor":[
					0.18784946203231812,
					0.8000000715255737,
					0.3953438699245453,
					1
				],
				"metallicFactor":0
			}
		},
		{
			"doubleSided":true,
			"name":"Material",
			"pbrMetallicRoughness":{
				"baseColorFactor":[
					0,
					0.8000000715255737,
					0.6401189565658569,
					1
				],
				"metallicFactor":0,
				"roughnessFactor":0.5
			}
		}
	],
	"meshes":[
		{
			"name":"Icosphere",
			"primitives":[
				{
					"attributes":{
						"POSITION":0,
						"TEXCOORD_0":1,
						"NORMAL":2
					},
					"indices":3,
					"material":0
				},
				{
					"attributes":{
						"POSITION":4,
						"TEXCOORD_0":5,
						"NORMAL":6
					},
					"indices":7,
					"material":1
				}
			]
		},
		{
			"name":"Torus",
			"primitives":[
				{
					"attributes":{
						"POSITION":8,
						"TEXCOORD_0":9,
						"NORMAL":10
					},
					"indices":11,
					"material":2
				}
			]
		}
	],
	"accessors":[
		{
			"bufferView":0,
			"componentType":5126,
			"count":57,
			"max":[
				0.9510578513145447,
				1,
				0.9999999403953552
			],
			"min":[
				-0.9510578513145447,
				-1,
				-0.8506492376327515
			],
			"type":"VEC3"
		},
		{
			"bufferView":1,
			"componentType":5126,
			"count":57,
			"type":"VEC2"
		},
		{
			"bufferView":2,
			"componentType":5126,
			"count":57,
			"type":"VEC3"
		},
		{
			"bufferView":3,
			"componentType":5123,
			"count":156,
			"type":"SCALAR"
		},
		{
			"bufferView":4,
			"componentType":5126,
			"count":82,
			"max":[
				1.0282363891601562,
				1.0620396137237549,
				1.074964165687561
			],
			"min":[
				-1.0201877355575562,
				-0.9195865392684937,
				-1.0788735151290894
			],
			"type":"VEC3"
		},
		{
			"bufferView":5,
			"componentType":5126,
			"count":82,
			"type":"VEC2"
		},
		{
			"bufferView":6,
			"componentType":5126,
			"count":82,
			"type":"VEC3"
		},
		{
			"bufferView":7,
			"componentType":5123,
			"count":264,
			"type":"SCALAR"
		},
		{
			"bufferView":8,
			"componentType":5126,
			"count":48,
			"max":[
				1.6800000667572021,
				0.07608451694250107,
				1.6378788948059082
			],
			"min":[
				-1.5136280059814453,
				-0.07608451694250107,
				-1.6378788948059082
			],
			"type":"VEC3"
		},
		{
			"bufferView":9,
			"componentType":5126,
			"count":48,
			"type":"VEC2"
		},
		{
			"bufferView":10,
			"componentType":5126,
			"count":48,
			"type":"VEC3"
		},
		{
			"bufferView":11,
			"componentType":5123,
			"count":210,
			"type":"SCALAR"
		}
	],
	"bufferViews":[
		{
			"buffer":0,
			"byteLength":684,
			"byteOffset":0,
			"target":34962
		},
		{
			"buffer":0,
			"byteLength":456,
			"byteOffset":684,
			"target":34962
		},
		{
			"buffer":0,
			"byteLength":684,
			"byteOffset":1140,
			"target":34962
		},
		{
			"buffer":0,
			"byteLength":312,
			"byteOffset":1824,
			"target":34963
		},
		{
			"buffer":0,
			"byteLength":984,
			"byteOffset":2136,
			"target":34962
		},
		{
			"buffer":0,
			"byteLength":656,
			"byteOffset":3120,
			"target":34962
		},
		{
			"buffer":0,
			"byteLength":984,
			"byteOffset":3776,
			"target":34962
		},
		{
			"buffer":0,
			"byteLength":528,
			"byteOffset":4760,
			"target":34963
		},
		{
			"buffer":0,
			"byteLength":576,
			"byteOffset":5288,
			"target":34962
		},
		{
			"buffer":0,
			"byteLength":384,
			"byteOffset":5864,
			"target":34962
		},
		{
			"buffer":0,
			"byteLength":576,
			"byteOffset":6248,
			"target":34962
		},
		{
			"buffer":0,
			"byteLength":420,
			"byteOffset":6824,
			"target":34963
		}
	],
	"buffers":[
		{
			"byteLength":7244,
			"uri":"data:application/octet-stream;base64,"
		}
	]
}
