{
	"asset":{
		"generator":"Khronos glTF Blender I/O v3.5.30",
		"version":"2.0"
	},
	"scene":0,
	"scenes":[
		{
			"name":"Scene",
			"nodes":[
				0
			]
		}
	],
	"nodes":[
		{
			"mesh":0,
			"name":"Icosphere",
			"scale":[
				1.4975250959396362,
				1.4975250959396362,
				1.4975250959396362
			]
		}
	],
	"materials":[
		{
			"doubleSided":true,
			"name":"Ocean",
			"pbrMetallicRoughness":{
				"baseColorFactor":[
					0.06568038463592529,
					0.32452237606048584,
					0.8000000715255737,
					1
				],
				"metallicFactor":0,
				"roughnessFactor":0.5
			}
		},
		{
			"doubleSided":true,
			"name":"Land",
			"pbrMetallicRoughness":{
				"baseColorFactor":[
					0.09779097884893417,
					0.8000000715255737,
					0.035327717661857605,
					1
				],
				"metallicFactor":0,
				"roughnessFactor":0.5
			}
		}
	],
	"meshes":[
		{
			"name":"Icosphere",
			"primitives":[
				{
					"attributes":{
						"POSITION":0,
						"TEXCOORD_0":1,
						"NORMAL":2
					},
					"indices":3,
					"material":0
				},
				{
					"attributes":{
						"POSITION":4,
						"TEXCOORD_0":5,
						"NORMAL":6
					},
					"indices":7,
					"material":1
				}
			]
		}
	],
	"accessors":[
		{
			"bufferView":0,
			"componentType":5126,
			"count":165,
			"max":[
				0.9510578513145447,
				1,
				0.9999999403953552
			],
			"min":[
				-0.9510578513145447,
				-1,
				-0.8506492376327515
			],
			"type":"VEC3"
		},
		{
			"bufferView":1,
			"componentType":5126,
			"count":165,
			"type":"VEC2"
		},
		{
			"bufferView":2,
			"componentType":5126,
			"count":165,
			"type":"VEC3"
		},
		{
			"bufferView":3,
			"componentType":5123,
			"count":165,
			"type":"SCALAR"
		},
		{
			"bufferView":4,
			"componentType":5126,
			"count":75,
			"max":[
				0.9510578513145447,
				1,
				0.9999999403953552
			],
			"min":[
				-0.9510578513145447,
				-0.8506544232368469,
				-0.9999999403953552
			],
			"type":"VEC3"
		},
		{
			"bufferView":5,
			"componentType":5126,
			"count":75,
			"type":"VEC2"
		},
		{
			"bufferView":6,
			"componentType":5126,
			"count":75,
			"type":"VEC3"
		},
		{
			"bufferView":7,
			"componentType":5123,
			"count":75,
			"type":"SCALAR"
		}
	],
	"bufferViews":[
		{
			"buffer":0,
			"byteLength":1980,
			"byteOffset":0,
			"target":34962
		},
		{
			"buffer":0,
			"byteLength":1320,
			"byteOffset":1980,
			"target":34962
		},
		{
			"buffer":0,
			"byteLength":1980,
			"byteOffset":3300,
			"target":34962
		},
		{
			"buffer":0,
			"byteLength":330,
			"byteOffset":5280,
			"target":34963
		},
		{
			"buffer":0,
			"byteLength":900,
			"byteOffset":5612,
			"target":34962
		},
		{
			"buffer":0,
			"byteLength":600,
			"byteOffset":6512,
			"target":34962
		},
		{
			"buffer":0,
			"byteLength":900,
			"byteOffset":7112,
			"target":34962
		},
		{
			"buffer":0,
			"byteLength":150,
			"byteOffset":8012,
			"target":34963
		}
	],
	"buffers":[
		{
			"byteLength":8164,
			"uri":"data:application/octet-stream;base64,"
		}
	]
}
