{
	"asset":{
		"generator":"Khronos glTF Blender I/O v3.5.30",
		"version":"2.0"
	},
	"scene":0,
	"scenes":[
		{
			"name":"Scene",
			"nodes":[
				0
			]
		}
	],
	"nodes":[
		{
			"mesh":0,
			"name":"Cube",
			"scale":[
				0.6612793803215027,
				0.6612793803215027,
				0.6612793803215027
			],
			"translation":[
				0,
				-0.18159876763820648,
				0
			]
		}
	],
	"materials":[
		{
			"doubleSided":true,
			"name":"Material",
			"pbrMetallicRoughness":{
				"baseColorFactor":[
					0.6283291578292847,
					0.8582173585891724,
					1,
					1
				],
				"metallicFactor":0,
				"roughnessFactor":0.5
			}
		},
		{
			"doubleSided":true,
			"name":"Red",
			"pbrMetallicRoughness":{
				"baseColorFactor":[
					0.8000000715255737,
					0,
					0.017171015962958336,
					1
				],
				"metallicFactor":0,
				"roughnessFactor":0.5
			}
		},
		{
			"doubleSided":true,
			"name":"Material.001",
			"pbrMetallicRoughness":{
				"baseColorFactor":[
					0.24999253451824188,
					0.7105534672737122,
					0.650750994682312,
					1
				],
				"metallicFactor":0,
				"roughnessFactor":0.5
			}
		}
	],
	"meshes":[
		{
			"name":"Cube",
			"primitives":[
				{
					"attributes":{
						"POSITION":0,
						"TEXCOORD_0":1,
						"NORMAL":2
					},
					"indices":3,
					"material":0
				},
				{
					"attributes":{
						"POSITION":4,
						"TEXCOORD_0":5,
						"NORMAL":6
					},
					"indices":7,
					"material":1
				},
				{
					"attributes":{
						"POSITION":8,
						"TEXCOORD_0":9,
						"NORMAL":10
					},
					"indices":11,
					"material":2
				}
			]
		}
	],
	"accessors":[
		{
			"bufferView":0,
			"componentType":5126,
			"count":26,
			"max":[
				1.740433692932129,
				0.3723084032535553,
				0.059483952820301056
			],
			"min":[
				-1.740433692932129,
				-1.0048799514770508,
				-0.002323523163795471
			],
			"type":"VEC3"
		},
		{
			"bufferView":1,
			"componentType":5126,
			"count":26,
			"type":"VEC2"
		},
		{
			"bufferView":2,
			"componentType":5126,
			"count":26,
			"type":"VEC3"
		},
		{
			"bufferView":3,
			"componentType":5123,
			"count":48,
			"type":"SCALAR"
		},
		{
			"bufferView":4,
			"componentType":5126,
			"count":28,
			"max":[
				1.740433692932129,
				0.4771290123462677,
				0.059483952820301056
			],
			"min":[
				-1.740433692932129,
				-0.3759700655937195,
				-0.059007808566093445
			],
			"type":"VEC3"
		},
		{
			"bufferView":5,
			"componentType":5126,
			"count":28,
			"type":"VEC2"
		},
		{
			"bufferView":6,
			"componentType":5126,
			"count":28,
			"type":"VEC3"
		},
		{
			"bufferView":7,
			"componentType":5123,
			"count":48,
			"type":"SCALAR"
		},
		{
			"bufferView":8,
			"componentType":5126,
			"count":26,
			"max":[
				1.740433692932129,
				0.7432674169540405,
				0.059483952820301056
			],
			"min":[
				-1.740433692932129,
				0.041116863489151,
				-0.002323523163795471
			],
			"type":"VEC3"
		},
		{
			"bufferView":9,
			"componentType":5126,
			"count":26,
			"type":"VEC2"
		},
		{
			"bufferView":10,
			"componentType":5126,
			"count":26,
			"type":"VEC3"
		},
		{
			"bufferView":11,
			"componentType":5123,
			"count":48,
			"type":"SCALAR"
		}
	],
	"bufferViews":[
		{
			"buffer":0,
			"byteLength":312,
			"byteOffset":0,
			"target":34962
		},
		{
			"buffer":0,
			"byteLength":208,
			"byteOffset":312,
			"target":34962
		},
		{
			"buffer":0,
			"byteLength":312,
			"byteOffset":520,
			"target":34962
		},
		{
			"buffer":0,
			"byteLength":96,
			"byteOffset":832,
			"target":34963
		},
		{
			"buffer":0,
			"byteLength":336,
			"byteOffset":928,
			"target":34962
		},
		{
			"buffer":0,
			"byteLength":224,
			"byteOffset":1264,
			"target":34962
		},
		{
			"buffer":0,
			"byteLength":336,
			"byteOffset":1488,
			"target":34962
		},
		{
			"buffer":0,
			"byteLength":96,
			"byteOffset":1824,
			"target":34963
		},
		{
			"buffer":0,
			"byteLength":312,
			"byteOffset":1920,
			"target":34962
		},
		{
			"buffer":0,
			"byteLength":208,
			"byteOffset":2232,
			"target":34962
		},
		{
			"buffer":0,
			"byteLength":312,
			"byteOffset":2440,
			"target":34962
		},
		{
			"buffer":0,
			"byteLength":96,
			"byteOffset":2752,
			"target":34963
		}
	],
	"buffers":[
		{
			"byteLength":2848,
			"uri":"data:application/octet-stream;base64,"
		}
	]
}
