{
	"asset":{
		"generator":"Khronos glTF Blender I/O v3.5.30",
		"version":"2.0"
	},
	"scene":0,
	"scenes":[
		{
			"name":"Scene",
			"nodes":[
				0,
				1
			]
		}
	],
	"nodes":[
		{
			"mesh":0,
			"name":"Cube"
		},
		{
			"mesh":1,
			"name":"Plane",
			"rotation":[
				-0.7071068286895752,
				0,
				0,
				0.7071068286895752
			],
			"scale":[
				0.25644659996032715,
				0.25644659996032715,
				0.25644659996032715
			],
			"translation":[
				-0.7115562558174133,
				0.426857054233551,
				-0.00250683119520545
			]
		}
	],
	"materials":[
		{
			"doubleSided":true,
			"name":"Paper",
			"pbrMetallicRoughness":{
				"baseColorFactor":[
					1,
					0.8280547261238098,
					0.649111270904541,
					1
				],
				"metallicFactor":0,
				"roughnessFactor":0.5
			}
		},
		{
			"doubleSided":true,
			"name":"PaperDark",
			"pbrMetallicRoughness":{
				"baseColorFactor":[
					0,
					0,
					0,
					1
				],
				"metallicFactor":0,
				"roughnessFactor":0.5
			}
		},
		{
			"doubleSided":true,
			"name":"Stamp",
			"pbrMetallicRoughness":{
				"baseColorFactor":[
					1,
					0.12786714732646942,
					0.3040418326854706,
					1
				],
				"metallicFactor":0,
				"roughnessFactor":0.5
			}
		},
		{
			"doubleSided":true,
			"name":"BlueStampp",
			"pbrMetallicRoughness":{
				"baseColorFactor":[
					0.0014045825228095055,
					0.8000000715255737,
					0.4263112246990204,
					1
				],
				"metallicFactor":0,
				"roughnessFactor":0.5
			}
		},
		{
			"doubleSided":true,
			"name":"BlackStamp",
			"pbrMetallicRoughness":{
				"baseColorFactor":[
					0,
					0,
					0,
					1
				],
				"metallicFactor":0,
				"roughnessFactor":0.5
			}
		}
	],
	"meshes":[
		{
			"name":"Cube.001",
			"primitives":[
				{
					"attributes":{
						"POSITION":0,
						"TEXCOORD_0":1,
						"NORMAL":2
					},
					"indices":3,
					"material":0
				},
				{
					"attributes":{
						"POSITION":4,
						"TEXCOORD_0":5,
						"NORMAL":6
					},
					"indices":7,
					"material":1
				}
			]
		},
		{
			"name":"Plane.001",
			"primitives":[
				{
					"attributes":{
						"POSITION":8,
						"TEXCOORD_0":9,
						"NORMAL":10
					},
					"indices":11,
					"material":2
				},
				{
					"attributes":{
						"POSITION":12,
						"TEXCOORD_0":13,
						"NORMAL":14
					},
					"indices":11,
					"material":3
				},
				{
					"attributes":{
						"POSITION":15,
						"TEXCOORD_0":16,
						"NORMAL":17
					},
					"indices":18,
					"material":4
				}
			]
		}
	],
	"accessors":[
		{
			"bufferView":0,
			"componentType":5126,
			"count":31,
			"max":[
				1.0168590545654297,
				0.7404463291168213,
				0.21413961052894592
			],
			"min":[
				-1.0168590545654297,
				-0.47667616605758667,
				-0.03243190050125122
			],
			"type":"VEC3"
		},
		{
			"bufferView":1,
			"componentType":5126,
			"count":31,
			"type":"VEC2"
		},
		{
			"bufferView":2,
			"componentType":5126,
			"count":31,
			"type":"VEC3"
		},
		{
			"bufferView":3,
			"componentType":5123,
			"count":90,
			"type":"SCALAR"
		},
		{
			"bufferView":4,
			"componentType":5126,
			"count":8,
			"max":[
				1.0168590545654297,
				0.7404463291168213,
				0.21413961052894592
			],
			"min":[
				-1.0168590545654297,
				-0.47667616605758667,
				0.04695143923163414
			],
			"type":"VEC3"
		},
		{
			"bufferView":5,
			"componentType":5126,
			"count":8,
			"type":"VEC2"
		},
		{
			"bufferView":6,
			"componentType":5126,
			"count":8,
			"type":"VEC3"
		},
		{
			"bufferView":7,
			"componentType":5123,
			"count":12,
			"type":"SCALAR"
		},
		{
			"bufferView":8,
			"componentType":5126,
			"count":4,
			"max":[
				0.5240448713302612,
				0.0645470917224884,
				1.1427010297775269
			],
			"min":[
				-1.034031867980957,
				0.025382041931152344,
				-0.5991187691688538
			],
			"type":"VEC3"
		},
		{
			"bufferView":9,
			"componentType":5126,
			"count":4,
			"type":"VEC2"
		},
		{
			"bufferView":10,
			"componentType":5126,
			"count":4,
			"type":"VEC3"
		},
		{
			"bufferView":11,
			"componentType":5123,
			"count":6,
			"type":"SCALAR"
		},
		{
			"bufferView":12,
			"componentType":5126,
			"count":4,
			"max":[
				1.4426943063735962,
				0.12006579339504242,
				0.542663037776947
			],
			"min":[
				0.19390425086021423,
				0.07778340578079224,
				-0.9721722602844238
			],
			"type":"VEC3"
		},
		{
			"bufferView":13,
			"componentType":5126,
			"count":4,
			"type":"VEC2"
		},
		{
			"bufferView":14,
			"componentType":5126,
			"count":4,
			"type":"VEC3"
		},
		{
			"bufferView":15,
			"componentType":5126,
			"count":12,
			"max":[
				1.7561577558517456,
				0.11891767382621765,
				0.7299409508705139
			],
			"min":[
				-0.5912885665893555,
				0.1189175397157669,
				-0.15783509612083435
			],
			"type":"VEC3"
		},
		{
			"bufferView":16,
			"componentType":5126,
			"count":12,
			"type":"VEC2"
		},
		{
			"bufferView":17,
			"componentType":5126,
			"count":12,
			"type":"VEC3"
		},
		{
			"bufferView":18,
			"componentType":5123,
			"count":18,
			"type":"SCALAR"
		}
	],
	"bufferViews":[
		{
			"buffer":0,
			"byteLength":372,
			"byteOffset":0,
			"target":34962
		},
		{
			"buffer":0,
			"byteLength":248,
			"byteOffset":372,
			"target":34962
		},
		{
			"buffer":0,
			"byteLength":372,
			"byteOffset":620,
			"target":34962
		},
		{
			"buffer":0,
			"byteLength":180,
			"byteOffset":992,
			"target":34963
		},
		{
			"buffer":0,
			"byteLength":96,
			"byteOffset":1172,
			"target":34962
		},
		{
			"buffer":0,
			"byteLength":64,
			"byteOffset":1268,
			"target":34962
		},
		{
			"buffer":0,
			"byteLength":96,
			"byteOffset":1332,
			"target":34962
		},
		{
			"buffer":0,
			"byteLength":24,
			"byteOffset":1428,
			"target":34963
		},
		{
			"buffer":0,
			"byteLength":48,
			"byteOffset":1452,
			"target":34962
		},
		{
			"buffer":0,
			"byteLength":32,
			"byteOffset":1500,
			"target":34962
		},
		{
			"buffer":0,
			"byteLength":48,
			"byteOffset":1532,
			"target":34962
		},
		{
			"buffer":0,
			"byteLength":12,
			"byteOffset":1580,
			"target":34963
		},
		{
			"buffer":0,
			"byteLength":48,
			"byteOffset":1592,
			"target":34962
		},
		{
			"buffer":0,
			"byteLength":32,
			"byteOffset":1640,
			"target":34962
		},
		{
			"buffer":0,
			"byteLength":48,
			"byteOffset":1672,
			"target":34962
		},
		{
			"buffer":0,
			"byteLength":144,
			"byteOffset":1720,
			"target":34962
		},
		{
			"buffer":0,
			"byteLength":96,
			"byteOffset":1864,
			"target":34962
		},
		{
			"buffer":0,
			"byteLength":144,
			"byteOffset":1960,
			"target":34962
		},
		{
			"buffer":0,
			"byteLength":36,
			"byteOffset":2104,
			"target":34963
		}
	],
	"buffers":[
		{
			"byteLength":2140,
			"uri":"data:application/octet-stream;base64,"
		}
	]
}
