{
	"asset":{
		"generator":"Khronos glTF Blender I/O v3.5.30",
		"version":"2.0"
	},
	"scene":0,
	"scenes":[
		{
			"name":"Scene",
			"nodes":[
				0,
				1
			]
		}
	],
	"nodes":[
		{
			"mesh":0,
			"name":"Body",
			"scale":[
				0.2336294800043106,
				0.2336294800043106,
				0.2336294800043106
			],
			"translation":[
				0,
				-0.19004489481449127,
				0
			]
		},
		{
			"mesh":1,
			"name":"Hair",
			"scale":[
				0.25037920475006104,
				0.25037920475006104,
				0.25037920475006104
			],
			"translation":[
				0,
				-0.21739843487739563,
				0
			]
		}
	],
	"materials":[
		{
			"doubleSided":true,
			"name":"Skin",
			"pbrMetallicRoughness":{
				"baseColorFactor":[
					0.8000000715255737,
					0.5938380360603333,
					0.34376785159111023,
					1
				],
				"metallicFactor":0,
				"roughnessFactor":0.5
			}
		},
		{
			"doubleSided":true,
			"name":"Shirt",
			"pbrMetallicRoughness":{
				"baseColorFactor":[
					0.8000000715255737,
					0.13376657664775848,
					0,
					1
				],
				"metallicFactor":0,
				"roughnessFactor":0.5
			}
		},
		{
			"doubleSided":true,
			"name":"PantWhite",
			"pbrMetallicRoughness":{
				"baseColorFactor":[
					0.7853677272796631,
					0.8000000715255737,
					0.7257896661758423,
					1
				],
				"metallicFactor":0,
				"roughnessFactor":0.5
			}
		},
		{
			"doubleSided":true,
			"name":"PantBlue",
			"pbrMetallicRoughness":{
				"baseColorFactor":[
					0.052719391882419586,
					0.5874539613723755,
					0.8000000715255737,
					1
				],
				"metallicFactor":0,
				"roughnessFactor":0.5
			}
		},
		{
			"doubleSided":true,
			"name":"EyeBlack",
			"pbrMetallicRoughness":{
				"baseColorFactor":[
					0.03108075261116028,
					0.0030184888746589422,
					0.03516668081283569,
					1
				],
				"metallicFactor":0,
				"roughnessFactor":0.5
			}
		},
		{
			"doubleSided":true,
			"name":"EarPink",
			"pbrMetallicRoughness":{
				"baseColorFactor":[
					0.8000000715255737,
					0.45965710282325745,
					0.6599109768867493,
					1
				],
				"metallicFactor":0,
				"roughnessFactor":0.5
			}
		},
		{
			"doubleSided":true,
			"name":"Hair",
			"pbrMetallicRoughness":{
				"baseColorFactor":[
					0.7140575051307678,
					0.29676130414009094,
					0.8000000715255737,
					1
				],
				"metallicFactor":0,
				"roughnessFactor":0.5
			}
		}
	],
	"meshes":[
		{
			"name":"Cylinder",
			"primitives":[
				{
					"attributes":{
						"POSITION":0,
						"TEXCOORD_0":1,
						"NORMAL":2
					},
					"indices":3,
					"material":0
				},
				{
					"attributes":{
						"POSITION":4,
						"TEXCOORD_0":5,
						"NORMAL":6
					},
					"indices":7,
					"material":1
				},
				{
					"attributes":{
						"POSITION":8,
						"TEXCOORD_0":9,
						"NORMAL":10
					},
					"indices":11,
					"material":2
				},
				{
					"attributes":{
						"POSITION":12,
						"TEXCOORD_0":13,
						"NORMAL":14
					},
					"indices":15,
					"material":3
				},
				{
					"attributes":{
						"POSITION":16,
						"TEXCOORD_0":17,
						"NORMAL":18
					},
					"indices":19,
					"material":4
				},
				{
					"attributes":{
						"POSITION":20,
						"TEXCOORD_0":21,
						"NORMAL":22
					},
					"indices":23,
					"material":5
				}
			]
		},
		{
			"name":"Cylinder.002",
			"primitives":[
				{
					"attributes":{
						"POSITION":24,
						"TEXCOORD_0":25,
						"NORMAL":26
					},
					"indices":27,
					"material":6
				}
			]
		}
	],
	"accessors":[
		{
			"bufferView":0,
			"componentType":5126,
			"count":245,
			"max":[
				1.8072267770767212,
				5.05529260635376,
				2.446577310562134
			],
			"min":[
				-1.7166965007781982,
				-2.2156975269317627,
				-2.446577310562134
			],
			"type":"VEC3"
		},
		{
			"bufferView":1,
			"componentType":5126,
			"count":245,
			"type":"VEC2"
		},
		{
			"bufferView":2,
			"componentType":5126,
			"count":245,
			"type":"VEC3"
		},
		{
			"bufferView":3,
			"componentType":5123,
			"count":834,
			"type":"SCALAR"
		},
		{
			"bufferView":4,
			"componentType":5126,
			"count":117,
			"max":[
				0.6902490854263306,
				1.219186544418335,
				1.1349081993103027
			],
			"min":[
				-0.7198722958564758,
				-1.1872296333312988,
				-1.1349081993103027
			],
			"type":"VEC3"
		},
		{
			"bufferView":5,
			"componentType":5126,
			"count":117,
			"type":"VEC2"
		},
		{
			"bufferView":6,
			"componentType":5126,
			"count":117,
			"type":"VEC3"
		},
		{
			"bufferView":7,
			"componentType":5123,
			"count":456,
			"type":"SCALAR"
		},
		{
			"bufferView":8,
			"componentType":5126,
			"count":78,
			"max":[
				0.3656007647514343,
				2.90116024017334,
				1.2573717832565308
			],
			"min":[
				-1.8052541017532349,
				-1.422849178314209,
				-1.2573717832565308
			],
			"type":"VEC3"
		},
		{
			"bufferView":9,
			"componentType":5126,
			"count":78,
			"type":"VEC2"
		},
		{
			"bufferView":10,
			"componentType":5126,
			"count":78,
			"type":"VEC3"
		},
		{
			"bufferView":11,
			"componentType":5123,
			"count":162,
			"type":"SCALAR"
		},
		{
			"bufferView":12,
			"componentType":5126,
			"count":35,
			"max":[
				0.3656007647514343,
				-1.1872296333312988,
				0.6719157695770264
			],
			"min":[
				-0.3656007647514343,
				-1.361549735069275,
				-0.6719157695770264
			],
			"type":"VEC3"
		},
		{
			"bufferView":13,
			"componentType":5126,
			"count":35,
			"type":"VEC2"
		},
		{
			"bufferView":14,
			"componentType":5126,
			"count":35,
			"type":"VEC3"
		},
		{
			"bufferView":15,
			"componentType":5123,
			"count":72,
			"type":"SCALAR"
		},
		{
			"bufferView":16,
			"componentType":5126,
			"count":150,
			"max":[
				0.3656007647514343,
				2.949310779571533,
				1.3898838758468628
			],
			"min":[
				-1.8256499767303467,
				-2.3858084678649902,
				-1.3898838758468628
			],
			"type":"VEC3"
		},
		{
			"bufferView":17,
			"componentType":5126,
			"count":150,
			"type":"VEC2"
		},
		{
			"bufferView":18,
			"componentType":5126,
			"count":150,
			"type":"VEC3"
		},
		{
			"bufferView":19,
			"componentType":5123,
			"count":276,
			"type":"SCALAR"
		},
		{
			"bufferView":20,
			"componentType":5126,
			"count":8,
			"max":[
				-0.0727875754237175,
				4.9644341468811035,
				1.1141636371612549
			],
			"min":[
				-0.32080352306365967,
				4.415465831756592,
				-1.1141636371612549
			],
			"type":"VEC3"
		},
		{
			"bufferView":21,
			"componentType":5126,
			"count":8,
			"type":"VEC2"
		},
		{
			"bufferView":22,
			"componentType":5126,
			"count":8,
			"type":"VEC3"
		},
		{
			"bufferView":23,
			"componentType":5123,
			"count":12,
			"type":"SCALAR"
		},
		{
			"bufferView":24,
			"componentType":5126,
			"count":170,
			"max":[
				1.8072267770767212,
				4.282866477966309,
				1.974762201309204
			],
			"min":[
				-1.7166965007781982,
				-0.9682053923606873,
				-1.960800290107727
			],
			"type":"VEC3"
		},
		{
			"bufferView":25,
			"componentType":5126,
			"count":170,
			"type":"VEC2"
		},
		{
			"bufferView":26,
			"componentType":5126,
			"count":170,
			"type":"VEC3"
		},
		{
			"bufferView":27,
			"componentType":5123,
			"count":852,
			"type":"SCALAR"
		}
	],
	"bufferViews":[
		{
			"buffer":0,
			"byteLength":2940,
			"byteOffset":0,
			"target":34962
		},
		{
			"buffer":0,
			"byteLength":1960,
			"byteOffset":2940,
			"target":34962
		},
		{
			"buffer":0,
			"byteLength":2940,
			"byteOffset":4900,
			"target":34962
		},
		{
			"buffer":0,
			"byteLength":1668,
			"byteOffset":7840,
			"target":34963
		},
		{
			"buffer":0,
			"byteLength":1404,
			"byteOffset":9508,
			"target":34962
		},
		{
			"buffer":0,
			"byteLength":936,
			"byteOffset":10912,
			"target":34962
		},
		{
			"buffer":0,
			"byteLength":1404,
			"byteOffset":11848,
			"target":34962
		},
		{
			"buffer":0,
			"byteLength":912,
			"byteOffset":13252,
			"target":34963
		},
		{
			"buffer":0,
			"byteLength":936,
			"byteOffset":14164,
			"target":34962
		},
		{
			"buffer":0,
			"byteLength":624,
			"byteOffset":15100,
			"target":34962
		},
		{
			"buffer":0,
			"byteLength":936,
			"byteOffset":15724,
			"target":34962
		},
		{
			"buffer":0,
			"byteLength":324,
			"byteOffset":16660,
			"target":34963
		},
		{
			"buffer":0,
			"byteLength":420,
			"byteOffset":16984,
			"target":34962
		},
		{
			"buffer":0,
			"byteLength":280,
			"byteOffset":17404,
			"target":34962
		},
		{
			"buffer":0,
			"byteLength":420,
			"byteOffset":17684,
			"target":34962
		},
		{
			"buffer":0,
			"byteLength":144,
			"byteOffset":18104,
			"target":34963
		},
		{
			"buffer":0,
			"byteLength":1800,
			"byteOffset":18248,
			"target":34962
		},
		{
			"buffer":0,
			"byteLength":1200,
			"byteOffset":20048,
			"target":34962
		},
		{
			"buffer":0,
			"byteLength":1800,
			"byteOffset":21248,
			"target":34962
		},
		{
			"buffer":0,
			"byteLength":552,
			"byteOffset":23048,
			"target":34963
		},
		{
			"buffer":0,
			"byteLength":96,
			"byteOffset":23600,
			"target":34962
		},
		{
			"buffer":0,
			"byteLength":64,
			"byteOffset":23696,
			"target":34962
		},
		{
			"buffer":0,
			"byteLength":96,
			"byteOffset":23760,
			"target":34962
		},
		{
			"buffer":0,
			"byteLength":24,
			"byteOffset":23856,
			"target":34963
		},
		{
			"buffer":0,
			"byteLength":2040,
			"byteOffset":23880,
			"target":34962
		},
		{
			"buffer":0,
			"byteLength":1360,
			"byteOffset":25920,
			"target":34962
		},
		{
			"buffer":0,
			"byteLength":2040,
			"byteOffset":27280,
			"target":34962
		},
		{
			"buffer":0,
			"byteLength":1704,
			"byteOffset":29320,
			"target":34963
		}
	],
	"buffers":[
		{
			"byteLength":31024,
			"uri":"data:application/octet-stream;base64,"
		}
	]
}
