{
	"asset":{
		"generator":"Khronos glTF Blender I/O v3.5.30",
		"version":"2.0"
	},
	"scene":0,
	"scenes":[
		{
			"name":"Scene",
			"nodes":[
				0
			]
		}
	],
	"nodes":[
		{
			"mesh":0,
			"name":"Cylinder",
			"scale":[
				0.2655426263809204,
				0.2655426263809204,
				0.2655426263809204
			]
		}
	],
	"materials":[
		{
			"doubleSided":true,
			"name":"Material",
			"pbrMetallicRoughness":{
				"baseColorFactor":[
					0.016768472269177437,
					0.005870380904525518,
					0.02364647015929222,
					1
				],
				"metallicFactor":0,
				"roughnessFactor":0.5
			}
		},
		{
			"doubleSided":true,
			"name":"Hair",
			"pbrMetallicRoughness":{
				"baseColorFactor":[
					0.23301564157009125,
					0.14848390221595764,
					0.053963255137205124,
					1
				],
				"metallicFactor":0,
				"roughnessFactor":0.5
			}
		},
		{
			"doubleSided":true,
			"name":"Skin",
			"pbrMetallicRoughness":{
				"baseColorFactor":[
					1,
					0.6571606397628784,
					0.38024136424064636,
					1
				],
				"metallicFactor":0,
				"roughnessFactor":0.5
			}
		},
		{
			"doubleSided":true,
			"name":"ClothWhite",
			"pbrMetallicRoughness":{
				"baseColorFactor":[
					0.9576399922370911,
					1,
					0.9681296348571777,
					1
				],
				"metallicFactor":0,
				"roughnessFactor":0.5
			}
		},
		{
			"doubleSided":true,
			"name":"EyeWhite",
			"pbrMetallicRoughness":{
				"metallicFactor":0,
				"roughnessFactor":0.5
			}
		}
	],
	"meshes":[
		{
			"name":"Cylinder.001",
			"primitives":[
				{
					"attributes":{
						"POSITION":0,
						"TEXCOORD_0":1,
						"NORMAL":2
					},
					"indices":3,
					"material":0
				},
				{
					"attributes":{
						"POSITION":4,
						"TEXCOORD_0":5,
						"NORMAL":6
					},
					"indices":7,
					"material":1
				},
				{
					"attributes":{
						"POSITION":8,
						"TEXCOORD_0":9,
						"NORMAL":10
					},
					"indices":11,
					"material":2
				},
				{
					"attributes":{
						"POSITION":12,
						"TEXCOORD_0":13,
						"NORMAL":14
					},
					"indices":15,
					"material":3
				},
				{
					"attributes":{
						"POSITION":16,
						"TEXCOORD_0":17,
						"NORMAL":18
					},
					"indices":19,
					"material":4
				}
			]
		}
	],
	"accessors":[
		{
			"bufferView":0,
			"componentType":5126,
			"count":306,
			"max":[
				1.888249397277832,
				3.3037729263305664,
				2.70782470703125
			],
			"min":[
				-1.0005955696105957,
				-2.7909328937530518,
				-2.70782470703125
			],
			"type":"VEC3"
		},
		{
			"bufferView":1,
			"componentType":5126,
			"count":306,
			"type":"VEC2"
		},
		{
			"bufferView":2,
			"componentType":5126,
			"count":306,
			"type":"VEC3"
		},
		{
			"bufferView":3,
			"componentType":5123,
			"count":930,
			"type":"SCALAR"
		},
		{
			"bufferView":4,
			"componentType":5126,
			"count":86,
			"max":[
				1.790781855583191,
				4.940611839294434,
				1.96966552734375
			],
			"min":[
				-1.790781855583191,
				-0.07652831822633743,
				-1.96966552734375
			],
			"type":"VEC3"
		},
		{
			"bufferView":5,
			"componentType":5126,
			"count":86,
			"type":"VEC2"
		},
		{
			"bufferView":6,
			"componentType":5126,
			"count":86,
			"type":"VEC3"
		},
		{
			"bufferView":7,
			"componentType":5123,
			"count":336,
			"type":"SCALAR"
		},
		{
			"bufferView":8,
			"componentType":5126,
			"count":30,
			"max":[
				1.790781855583191,
				3.3037729263305664,
				1.0990089178085327
			],
			"min":[
				-1.5836304426193237,
				1.0842365026474,
				-1.0990089178085327
			],
			"type":"VEC3"
		},
		{
			"bufferView":9,
			"componentType":5126,
			"count":30,
			"type":"VEC2"
		},
		{
			"bufferView":10,
			"componentType":5126,
			"count":30,
			"type":"VEC3"
		},
		{
			"bufferView":11,
			"componentType":5123,
			"count":90,
			"type":"SCALAR"
		},
		{
			"bufferView":12,
			"componentType":5126,
			"count":56,
			"max":[
				0.4601776897907257,
				-1.9440587759017944,
				0.525661289691925
			],
			"min":[
				0.18724101781845093,
				-2.740900993347168,
				-0.525661289691925
			],
			"type":"VEC3"
		},
		{
			"bufferView":13,
			"componentType":5126,
			"count":56,
			"type":"VEC2"
		},
		{
			"bufferView":14,
			"componentType":5126,
			"count":56,
			"type":"VEC3"
		},
		{
			"bufferView":15,
			"componentType":5123,
			"count":96,
			"type":"SCALAR"
		},
		{
			"bufferView":16,
			"componentType":5126,
			"count":48,
			"max":[
				1.8295191526412964,
				3.0181140899658203,
				0.7785655856132507
			],
			"min":[
				1.7379298210144043,
				2.3744056224823,
				-0.7785655856132507
			],
			"type":"VEC3"
		},
		{
			"bufferView":17,
			"componentType":5126,
			"count":48,
			"type":"VEC2"
		},
		{
			"bufferView":18,
			"componentType":5126,
			"count":48,
			"type":"VEC3"
		},
		{
			"bufferView":19,
			"componentType":5123,
			"count":72,
			"type":"SCALAR"
		}
	],
	"bufferViews":[
		{
			"buffer":0,
			"byteLength":3672,
			"byteOffset":0,
			"target":34962
		},
		{
			"buffer":0,
			"byteLength":2448,
			"byteOffset":3672,
			"target":34962
		},
		{
			"buffer":0,
			"byteLength":3672,
			"byteOffset":6120,
			"target":34962
		},
		{
			"buffer":0,
			"byteLength":1860,
			"byteOffset":9792,
			"target":34963
		},
		{
			"buffer":0,
			"byteLength":1032,
			"byteOffset":11652,
			"target":34962
		},
		{
			"buffer":0,
			"byteLength":688,
			"byteOffset":12684,
			"target":34962
		},
		{
			"buffer":0,
			"byteLength":1032,
			"byteOffset":13372,
			"target":34962
		},
		{
			"buffer":0,
			"byteLength":672,
			"byteOffset":14404,
			"target":34963
		},
		{
			"buffer":0,
			"byteLength":360,
			"byteOffset":15076,
			"target":34962
		},
		{
			"buffer":0,
			"byteLength":240,
			"byteOffset":15436,
			"target":34962
		},
		{
			"buffer":0,
			"byteLength":360,
			"byteOffset":15676,
			"target":34962
		},
		{
			"buffer":0,
			"byteLength":180,
			"byteOffset":16036,
			"target":34963
		},
		{
			"buffer":0,
			"byteLength":672,
			"byteOffset":16216,
			"target":34962
		},
		{
			"buffer":0,
			"byteLength":448,
			"byteOffset":16888,
			"target":34962
		},
		{
			"buffer":0,
			"byteLength":672,
			"byteOffset":17336,
			"target":34962
		},
		{
			"buffer":0,
			"byteLength":192,
			"byteOffset":18008,
			"target":34963
		},
		{
			"buffer":0,
			"byteLength":576,
			"byteOffset":18200,
			"target":34962
		},
		{
			"buffer":0,
			"byteLength":384,
			"byteOffset":18776,
			"target":34962
		},
		{
			"buffer":0,
			"byteLength":576,
			"byteOffset":19160,
			"target":34962
		},
		{
			"buffer":0,
			"byteLength":144,
			"byteOffset":19736,
			"target":34963
		}
	],
	"buffers":[
		{
			"byteLength":19880,
			"uri":"data:application/octet-stream;base64,"
		}
	]
}
