{
	"asset":{
		"generator":"Khronos glTF Blender I/O v3.5.30",
		"version":"2.0"
	},
	"scene":0,
	"scenes":[
		{
			"name":"Scene",
			"nodes":[
				0
			]
		}
	],
	"nodes":[
		{
			"mesh":0,
			"name":"Cylinder",
			"scale":[
				0.2655426263809204,
				0.2655426263809204,
				0.2655426263809204
			]
		}
	],
	"materials":[
		{
			"doubleSided":true,
			"name":"Material",
			"pbrMetallicRoughness":{
				"baseColorFactor":[
					0.016768472269177437,
					0.005870380904525518,
					0.02364647015929222,
					1
				],
				"metallicFactor":0,
				"roughnessFactor":0.5
			}
		},
		{
			"doubleSided":true,
			"name":"Hair",
			"pbrMetallicRoughness":{
				"baseColorFactor":[
					0.21834881603717804,
					0.8000000715255737,
					0.3341881036758423,
					1
				],
				"metallicFactor":0,
				"roughnessFactor":0.5
			}
		},
		{
			"doubleSided":true,
			"name":"Skin",
			"pbrMetallicRoughness":{
				"baseColorFactor":[
					0.8000000715255737,
					0.6176057457923889,
					0.46450579166412354,
					1
				],
				"metallicFactor":0,
				"roughnessFactor":0.5
			}
		}
	],
	"meshes":[
		{
			"name":"Cylinder.001",
			"primitives":[
				{
					"attributes":{
						"POSITION":0,
						"TEXCOORD_0":1,
						"NORMAL":2
					},
					"indices":3,
					"material":0
				},
				{
					"attributes":{
						"POSITION":4,
						"TEXCOORD_0":5,
						"NORMAL":6
					},
					"indices":7,
					"material":1
				},
				{
					"attributes":{
						"POSITION":8,
						"TEXCOORD_0":9,
						"NORMAL":10
					},
					"indices":11,
					"material":2
				}
			]
		}
	],
	"accessors":[
		{
			"bufferView":0,
			"componentType":5126,
			"count":478,
			"max":[
				1.790781855583191,
				3.3037729263305664,
				2.70782470703125
			],
			"min":[
				-1.0005955696105957,
				-2.7909328937530518,
				-2.70782470703125
			],
			"type":"VEC3"
		},
		{
			"bufferView":1,
			"componentType":5126,
			"count":478,
			"type":"VEC2"
		},
		{
			"bufferView":2,
			"componentType":5126,
			"count":478,
			"type":"VEC3"
		},
		{
			"bufferView":3,
			"componentType":5123,
			"count":726,
			"type":"SCALAR"
		},
		{
			"bufferView":4,
			"componentType":5126,
			"count":266,
			"max":[
				1.790781855583191,
				4.940611839294434,
				1.96966552734375
			],
			"min":[
				-1.790781855583191,
				1.146538496017456,
				-1.96966552734375
			],
			"type":"VEC3"
		},
		{
			"bufferView":5,
			"componentType":5126,
			"count":266,
			"type":"VEC2"
		},
		{
			"bufferView":6,
			"componentType":5126,
			"count":266,
			"type":"VEC3"
		},
		{
			"bufferView":7,
			"componentType":5123,
			"count":324,
			"type":"SCALAR"
		},
		{
			"bufferView":8,
			"componentType":5126,
			"count":90,
			"max":[
				1.790781855583191,
				3.3037729263305664,
				1.0990089178085327
			],
			"min":[
				-0.9899159669876099,
				1.0641592741012573,
				-1.0990089178085327
			],
			"type":"VEC3"
		},
		{
			"bufferView":9,
			"componentType":5126,
			"count":90,
			"type":"VEC2"
		},
		{
			"bufferView":10,
			"componentType":5126,
			"count":90,
			"type":"VEC3"
		},
		{
			"bufferView":11,
			"componentType":5123,
			"count":150,
			"type":"SCALAR"
		}
	],
	"bufferViews":[
		{
			"buffer":0,
			"byteLength":5736,
			"byteOffset":0,
			"target":34962
		},
		{
			"buffer":0,
			"byteLength":3824,
			"byteOffset":5736,
			"target":34962
		},
		{
			"buffer":0,
			"byteLength":5736,
			"byteOffset":9560,
			"target":34962
		},
		{
			"buffer":0,
			"byteLength":1452,
			"byteOffset":15296,
			"target":34963
		},
		{
			"buffer":0,
			"byteLength":3192,
			"byteOffset":16748,
			"target":34962
		},
		{
			"buffer":0,
			"byteLength":2128,
			"byteOffset":19940,
			"target":34962
		},
		{
			"buffer":0,
			"byteLength":3192,
			"byteOffset":22068,
			"target":34962
		},
		{
			"buffer":0,
			"byteLength":648,
			"byteOffset":25260,
			"target":34963
		},
		{
			"buffer":0,
			"byteLength":1080,
			"byteOffset":25908,
			"target":34962
		},
		{
			"buffer":0,
			"byteLength":720,
			"byteOffset":26988,
			"target":34962
		},
		{
			"buffer":0,
			"byteLength":1080,
			"byteOffset":27708,
			"target":34962
		},
		{
			"buffer":0,
			"byteLength":300,
			"byteOffset":28788,
			"target":34963
		}
	],
	"buffers":[
		{
			"byteLength":29088,
			"uri":"data:application/octet-stream;base64,"
		}
	]
}
