{
	"asset":{
		"generator":"Khronos glTF Blender I/O v3.5.30",
		"version":"2.0"
	},
	"scene":0,
	"scenes":[
		{
			"name":"Scene",
			"nodes":[
				0
			]
		}
	],
	"nodes":[
		{
			"mesh":0,
			"name":"Cylinder",
			"scale":[
				0.2655426263809204,
				0.2655426263809204,
				0.2655426263809204
			]
		}
	],
	"materials":[
		{
			"doubleSided":true,
			"name":"Material",
			"pbrMetallicRoughness":{
				"baseColorFactor":[
					0.016768472269177437,
					0.005870380904525518,
					0.02364647015929222,
					1
				],
				"metallicFactor":0,
				"roughnessFactor":0.5
			}
		},
		{
			"doubleSided":true,
			"name":"Hair",
			"pbrMetallicRoughness":{
				"baseColorFactor":[
					0.18445412814617157,
					0.11819618940353394,
					0.04376024380326271,
					1
				],
				"metallicFactor":0,
				"roughnessFactor":0.5
			}
		},
		{
			"doubleSided":true,
			"name":"Skin",
			"pbrMetallicRoughness":{
				"baseColorFactor":[
					0.8000000715255737,
					0.6176057457923889,
					0.46450579166412354,
					1
				],
				"metallicFactor":0,
				"roughnessFactor":0.5
			}
		}
	],
	"meshes":[
		{
			"name":"Cylinder.001",
			"primitives":[
				{
					"attributes":{
						"POSITION":0,
						"TEXCOORD_0":1,
						"NORMAL":2
					},
					"indices":3,
					"material":0
				},
				{
					"attributes":{
						"POSITION":4,
						"TEXCOORD_0":5,
						"NORMAL":6
					},
					"indices":7,
					"material":1
				},
				{
					"attributes":{
						"POSITION":8,
						"TEXCOORD_0":9,
						"NORMAL":10
					},
					"indices":11,
					"material":2
				}
			]
		}
	],
	"accessors":[
		{
			"bufferView":0,
			"componentType":5126,
			"count":232,
			"max":[
				1.790781855583191,
				3.3037729263305664,
				2.70782470703125
			],
			"min":[
				-1.0005955696105957,
				-2.7909328937530518,
				-2.70782470703125
			],
			"type":"VEC3"
		},
		{
			"bufferView":1,
			"componentType":5126,
			"count":232,
			"type":"VEC2"
		},
		{
			"bufferView":2,
			"componentType":5126,
			"count":232,
			"type":"VEC3"
		},
		{
			"bufferView":3,
			"componentType":5123,
			"count":846,
			"type":"SCALAR"
		},
		{
			"bufferView":4,
			"componentType":5126,
			"count":86,
			"max":[
				1.790781855583191,
				4.940611839294434,
				1.96966552734375
			],
			"min":[
				-1.790781855583191,
				-0.07652831822633743,
				-1.96966552734375
			],
			"type":"VEC3"
		},
		{
			"bufferView":5,
			"componentType":5126,
			"count":86,
			"type":"VEC2"
		},
		{
			"bufferView":6,
			"componentType":5126,
			"count":86,
			"type":"VEC3"
		},
		{
			"bufferView":7,
			"componentType":5123,
			"count":336,
			"type":"SCALAR"
		},
		{
			"bufferView":8,
			"componentType":5126,
			"count":29,
			"max":[
				1.790781855583191,
				3.3037729263305664,
				1.0990089178085327
			],
			"min":[
				-1.5836304426193237,
				1.0842365026474,
				-1.0990089178085327
			],
			"type":"VEC3"
		},
		{
			"bufferView":9,
			"componentType":5126,
			"count":29,
			"type":"VEC2"
		},
		{
			"bufferView":10,
			"componentType":5126,
			"count":29,
			"type":"VEC3"
		},
		{
			"bufferView":11,
			"componentType":5123,
			"count":90,
			"type":"SCALAR"
		}
	],
	"bufferViews":[
		{
			"buffer":0,
			"byteLength":2784,
			"byteOffset":0,
			"target":34962
		},
		{
			"buffer":0,
			"byteLength":1856,
			"byteOffset":2784,
			"target":34962
		},
		{
			"buffer":0,
			"byteLength":2784,
			"byteOffset":4640,
			"target":34962
		},
		{
			"buffer":0,
			"byteLength":1692,
			"byteOffset":7424,
			"target":34963
		},
		{
			"buffer":0,
			"byteLength":1032,
			"byteOffset":9116,
			"target":34962
		},
		{
			"buffer":0,
			"byteLength":688,
			"byteOffset":10148,
			"target":34962
		},
		{
			"buffer":0,
			"byteLength":1032,
			"byteOffset":10836,
			"target":34962
		},
		{
			"buffer":0,
			"byteLength":672,
			"byteOffset":11868,
			"target":34963
		},
		{
			"buffer":0,
			"byteLength":348,
			"byteOffset":12540,
			"target":34962
		},
		{
			"buffer":0,
			"byteLength":232,
			"byteOffset":12888,
			"target":34962
		},
		{
			"buffer":0,
			"byteLength":348,
			"byteOffset":13120,
			"target":34962
		},
		{
			"buffer":0,
			"byteLength":180,
			"byteOffset":13468,
			"target":34963
		}
	],
	"buffers":[
		{
			"byteLength":13648,
			"uri":"data:application/octet-stream;base64,"
		}
	]
}
